<svg
  xmlns="http://www.w3.org/2000/svg"
  width="24"
  height="24"
  viewBox="0 0 24 24"
  fill="none"
  stroke="currentColor"
  stroke-width="2"
  stroke-linecap="round"
  stroke-linejoin="round"
>
  <path d="M14 7v6" />
  <path d="M17 10h-6" />
  <path d="m17.5 17.498 3.998-3.998-2.252.003a1.75 1.75 134.96 0 0-1.746 1.75z" />
  <path d="M2 8v10.368a3.636 3.636 45 0 0 3.636 3.636h10.368" />
  <path d="M6.008 14.675V5.334A3.333 3.333 135 0 1 9.34 2h9.334a3.333 3.333 45 0 1 3.333 3.334v7.801a2.1 2.1 112.5 0 1-.617 1.49l-2.756 2.756a2.1 2.1 157.48 0 1-1.49.618l-7.804.006a3.33 3.33 44.977 0 1-3.333-3.33z" />
</svg>