<svg
  xmlns="http://www.w3.org/2000/svg"
  width="24"
  height="24"
  viewBox="0 0 24 24"
  fill="none"
  stroke="currentColor"
  stroke-width="2"
  stroke-linecap="round"
  stroke-linejoin="round"
>
  <path d="m11.086 20.035.744.609a6.02 6.02 0 0 0 3.81 1.36h4.755A1.606 1.606 0 0 0 22 20.398v-3.717a8.93 8.93 0 0 0-2.004-5.673" />
  <path d="M7.668 7.293c.35-1.21.95-1.631 1.854-1.656.828-.022 1.355.478 1.635 1.061.02.078.306.744.085 1.415.006-.009-.125.433-.612.815-.194.153-.854.337-1.085 1.141" />
  <path d="M9.463 17.037a7.572 8.203 0 0 0 7.572-8.203 6.937 7.515 0 0 0-7.572-6.757A7.535 8.163 0 0 0 1.96 10.28l.002 4.49a2.095 2.27 0 0 0 2.095 2.267z" />
  <circle cx="9.497" cy="13.146" r=".1" fill="currentColor" />
</svg>