<?xml version="1.0" encoding="UTF-8"?>
<svg width="24" height="24" fill="none" version="1.1" viewBox="0 0 24 24" xmlns="http://www.w3.org/2000/svg">
 <path transform="matrix(.85063 0 0 .85765 -16.474 1.0341)" d="m33.444 1.1307-2.7422 0.016174a1.0735 1.0735 143.55 0 0-1.0178 0.75171l-3.5928 11.435a2.0377 2.0377 53.46 0 0 1.9626 2.6485l5.3353-0.04857-1.9741 6.8566a1.3046 1.3046 23.788 0 0 2.3659 1.0429l6.8571-11.184a2.2014 2.2014 60.753 0 0-1.877-3.352l-4.1943 5.213e-4 2.2144-7.4165a0.58344 0.58344 53.312 0 0-0.55905-0.75036z" fill="none" stroke="currentColor" stroke-linecap="round" stroke-linejoin="round" stroke-width="2"/>
</svg>
