<svg
  xmlns="http://www.w3.org/2000/svg"
  width="24"
  height="24"
  viewBox="0 0 24 24"
  fill="none"
  stroke="currentColor"
  stroke-width="2"
  stroke-linecap="round"
  stroke-linejoin="round"
>
  <path d="M10.997 22.008H4.305a2.3 2.3 0 0 1-2.3-2.3V7.547a3.543 3.543 0 0 1 3.542-3.543h1.461v-.72a1.28 1.28 0 0 1 1.281-1.28h2.434a1.28 1.28 0 0 1 1.281 1.28v.72h1.453A3.543 3.543 0 0 1 17 7.547v1.462" />
  <path d="m15.183 15.808-.98-.565" />
  <path d="m15.183 19.179-.981.564" />
  <path d="M18.113 14.122v-1.129" />
  <path d="M18.113 20.836a3.338 3.342 0 0 1-3.339-3.343 3.338 3.342 0 0 1 3.339-3.342 3.338 3.342 0 0 1 3.338 3.342 3.338 3.342 0 0 1-3.338 3.343" />
  <path d="M18.113 20.865v1.128" />
  <path d="m21.042 15.808.981-.565" />
  <path d="m21.042 19.179.981.564" />
  <path d="M6 12h5.996" />
  <path d="M6.004 8.004h7.004" />
  <path d="M6.02 16.004h3.983" />
</svg>