<svg
  xmlns="http://www.w3.org/2000/svg"
  width="24"
  height="24"
  viewBox="0 0 24 24"
  fill="none"
  stroke="currentColor"
  stroke-width="2"
  stroke-linecap="round"
  stroke-linejoin="round"
>
  <path d="M13.004 3.004v4.353A1.643 1.643 45 0 0 14.647 9h4.365" />
  <path d="m14.957 2.961 4.08 4.08a3.28 3.28 67.5 0 1 .96 2.32v9.335A3.304 3.304 135 0 1 16.695 22H6.3a3.304 3.304 45 0 1-3.303-3.304V5.303A3.304 3.304 135 0 1 6.3 2h6.337a3.28 3.28 22.5 0 1 2.32.96z" />
  <path d="M7 14h9" />
  <path d="M7 18.004h7.008" />
</svg>