<svg
  xmlns="http://www.w3.org/2000/svg"
  width="24"
  height="24"
  viewBox="0 0 24 24"
  fill="none"
  stroke="currentColor"
  stroke-width="2"
  stroke-linecap="round"
  stroke-linejoin="round"
>
  <path d="M11.997 21.006h-7.2a2.793 2.793 45.033 0 1-2.793-2.796L2.02 4.732a2.74 2.74 135.03 0 1 2.74-2.736h7.246a4.88 4.88 22.5 0 1 3.45 1.429l3.792 3.792a1.041 1.041 112.5 0 1-.736 1.777h-6.489V1.996" />
  <path d="m19.004 12.004-2.42.649a2.145 2.145 127.5 0 0-1.59 2.071v2.039a5.61 5.61 60 0 0 2.807 4.862l1.201.694 1.199-.692a5.61 5.61 120 0 0 2.807-4.862V14.7a2.13 2.13 52.348 0 0-1.592-2.063z" />
  <path d="M6.008 13.008h4" />
  <path d="M6.008 17.008H10" />
</svg>