<svg
  xmlns="http://www.w3.org/2000/svg"
  width="24"
  height="24"
  viewBox="0 0 24 24"
  fill="none"
  stroke="currentColor"
  stroke-width="2"
  stroke-linecap="round"
  stroke-linejoin="round"
>
  <path d="M-10.062 54.515a8 8 0 0 1-3.683-2.103" />
  <path d="M-15.761 48.995a8 8 0 0 1-.021-4.385" />
  <path d="M-2.356 41.175a8 8 0 0 0-3.663-2.138" />
  <path d="M-2.395 52.396a8 8 0 0 1-3.698 2.12" />
  <path d="M13.997 19.841c.018 2.55-3.948 2.734-4 0" />
  <path d="M13.997 4.12c.036-2.627-4.03-2.627-4 0" />
  <path d="M14.032 19.848a8 8 0 0 0 3.685-2.143" />
  <path d="M17.77 6.573a8 8 0 0 0-3.787-2.211" />
  <path d="M19.701 14.268a8 8 0 0 0 .02-4.241" />
  <path d="M20 14.386c2.218 1.26.394 4.787-2 3.464" />
  <path d="M20 9.872c2.206-1.297.432-4.76-2-3.464" />
  <path d="M4.295 14.265a8 8 0 0 1-.02-4.241" />
  <path d="M6.002 17.85c-2.277 1.322-4.283-2.152-2-3.464" />
  <path d="M6.002 6.408c-2.277-1.322-4.283 2.152-2 3.464" />
  <path d="M6.226 6.57a8 8 0 0 1 3.787-2.211" />
  <path d="M9.964 19.845a8 8 0 0 1-3.685-2.143" />
  <circle cx="12" cy="12" r="3" />
</svg>