<svg
  xmlns="http://www.w3.org/2000/svg"
  width="24"
  height="24"
  viewBox="0 0 24 24"
  fill="none"
  stroke="currentColor"
  stroke-width="2"
  stroke-linecap="round"
  stroke-linejoin="round"
>
  <path d="M10 13.006V8" />
  <path d="M12 17v4" />
  <path d="M14 12.996V10" />
  <path d="M20.009 2.046h.01" />
  <path d="M20.009 9.993h.01" />
  <path d="M22 13.752V14a2 2 0 0 1-2 2H4a2 2 0 0 1-2-2V4a2 2 0 0 1 2-2h10.032" />
  <path d="m22.03 3.748-.225-.25a1.947 2.128 0 0 0-1.388-.637h-1.17a1.258 1.375 0 0 0-1.258 1.376 1.484 1.623 0 0 0 1.234 1.552l1.582.347a1.536 1.679 0 0 1 1.234 1.646 1.215 1.328 0 0 1-1.258 1.279h-1.17a1.976 2.16 0 0 1-1.394-.63l-.237-.258" />
  <path d="M6.004 13.004v-2.996" />
  <path d="M8 21h8" />
</svg>