<svg
  xmlns="http://www.w3.org/2000/svg"
  width="24"
  height="24"
  viewBox="0 0 24 24"
  fill="none"
  stroke="currentColor"
  stroke-width="2"
  stroke-linecap="round"
  stroke-linejoin="round"
>
  <path d="M2 21a8 8 0 0 1 10.82-7.487" />
  <path d="M20.241 16.042c-.487.023-.745.116-1.272.579-.832.731-.5-.215-.477.254.022-.469.269.45-.477-.254-.45-.401-.785-.556-1.272-.579a1.87 1.87 0 0 0-1.272.579 1.74 1.74 0 0 0-.477 1.275c0 1.457 1.973 3.165 2.956 3.925a.9.9 0 0 0 1.084 0c.983-.758 2.956-2.468 2.956-3.925a1.74 1.74 0 0 0-.477-1.275 1.87 1.87 0 0 0-1.272-.579" />
  <circle cx="10" cy="8" r="5" />
</svg>